<?xml version="1.0" encoding="utf-8"?>
<!-- Generator: Adobe Illustrator 16.0.4, SVG Export Plug-In . SVG Version: 6.00 Build 0)  -->
<!DOCTYPE svg PUBLIC "-//W3C//DTD SVG 1.1//EN" "http://www.w3.org/Graphics/SVG/1.1/DTD/svg11.dtd">
<svg version="1.1" id="Layer_1" xmlns="http://www.w3.org/2000/svg" xmlns:xlink="http://www.w3.org/1999/xlink" x="0px" y="0px"
	 width="1856.504px" height="1847.385px" viewBox="0 0 1856.504 1847.385" enable-background="new 0 0 1856.504 1847.385"
	 xml:space="preserve">
<rect fill="#FFFFFF" width="1856.504" height="1847.385"/>
<path d="M1789.526,1063.897l-0.039,0.02c0.27-99.726,0.27-199.564-0.058-299.271l0.058,0.02l-0.058-15.206l-0.021-6.067h-0.019
	c-0.346-102.125-1.019-204-1.978-305.434l0.037,0.02l-0.152-16.357l-0.059-5.627l0,0c-1.113-113.279-2.593-225.925-4.454-337.42
	l-0.135-9.292l-9.272-0.154c-111.515-1.862-224.142-3.321-337.44-4.435l0,0l-5.626-0.058l-16.377-0.154l0.038,0.058
	c-101.435-0.96-203.31-1.632-305.414-1.978v-0.019l-6.048-0.02l-15.207-0.039l0.02,0.039c-99.744-0.346-199.584-0.365-299.309-0.096
	l0.02-0.058l-14.649,0.039l-6.298,0.019v0.019c-101.971,0.327-203.731,0.96-305.068,1.862l0.038-0.058l-16.646,0.154l-5.549,0.077
	l0,0c-119.252,1.133-239.231,2.688-356.735,4.646l-9.274,0.153L73.7,78.553c-1.862,111.495-3.321,224.141-4.436,337.421l0,0
	l-0.059,5.625l-0.153,16.358l0.059-0.038c-0.96,101.414-1.632,203.309-1.979,305.434h-0.019l-0.021,6.067l-0.039,15.206l0.039-0.021
	c-0.346,99.744-0.346,199.584-0.096,299.31l-0.06-0.02l0.039,14.669v0.02l0.021,6.26h0.019c0.326,101.99,0.961,203.75,1.862,305.068
	l-0.058-0.038l0.153,16.646l0.059,5.529l0,0c1.112,119.271,2.668,239.252,4.627,356.736l0.19,9.293l9.274,0.152
	c116.256,1.939,236.256,3.514,356.735,4.627l0,0l5.528,0.059c0,0,0.021,0,0.039,0l16.607,0.153l-0.02-0.058
	c101.318,0.902,203.099,1.555,305.068,1.862v0.019l6.298,0.021l14.649,0.038v-0.02c47.079,0.134,94.157,0.211,141.255,0.211
	c52.686,0,105.35-0.096,157.996-0.269l-0.02,0.038l15.206-0.059l6.048-0.02v-0.02c102.106-0.346,204-1.037,305.416-1.978
	l-0.021,0.038l16.377-0.153l5.626-0.058l0,0c113.3-1.114,225.927-2.594,337.439-4.455l9.293-0.135l0.153-9.272
	c1.979-118.023,3.571-239.904,4.686-362.267l0.153-16.646l-0.058,0.019c0.902-101.299,1.555-203.059,1.862-305.067h0.02l0.02-6.278
	v-0.02l0,0L1789.526,1063.897z M1770.25,1092.256c-0.346,103.064-0.979,205.938-1.921,308.294
	c-3.455,1.882-7.104,3.726-10.809,5.568c-2.785,1.382-5.416,2.784-8.334,4.146c-5.05,2.342-10.521,4.627-15.992,6.912
	c-2.92,1.209-5.627,2.457-8.66,3.667c-6.758,2.669-13.996,5.28-21.351,7.854c-2.094,0.729-3.993,1.498-6.145,2.228
	c-9.695,3.302-19.854,6.509-30.509,9.638c-2.42,0.711-5.088,1.383-7.547,2.094c-8.39,2.399-16.856,4.762-25.805,7.064
	c-4.107,1.057-8.543,2.055-12.768,3.092c-7.681,1.882-15.36,3.765-23.424,5.568c-4.916,1.094-10.101,2.15-15.168,3.226
	c-7.872,1.67-15.744,3.359-23.963,4.974c-5.414,1.074-11.078,2.093-16.664,3.13c-5.839,1.094-11.771,2.169-17.779,3.226
	c0.651-4.205,1.248-8.641,1.881-12.902c1.037-7.026,2.074-14.017,3.072-21.196c0.959-6.912,1.861-13.997,2.783-21.062
	c0.884-6.776,1.786-13.497,2.631-20.409c0.961-7.871,1.862-15.917,2.783-23.941c0.729-6.451,1.498-12.808,2.209-19.354
	c0.959-8.928,1.844-18.027,2.745-27.129c0.595-5.914,1.209-11.73,1.767-17.722c1.037-10.982,1.979-22.176,2.919-33.39
	c0.364-4.301,0.769-8.523,1.112-12.863c1.248-15.438,2.4-31.085,3.457-46.867c0.402-5.875,0.729-11.885,1.095-17.799
	c0.634-10.062,1.286-20.103,1.843-30.278c0.402-7.43,0.749-14.956,1.133-22.443c0.385-7.564,0.807-15.072,1.133-22.694l0,0v-0.021
	c11.31-0.901,22.062-1.822,32.603-2.765c1.075-0.096,2.266-0.191,3.322-0.288c13.42-1.209,26.188-2.477,38.36-3.763
	c2.572-0.271,4.877-0.558,7.373-0.845c9.081-0.999,17.913-2.018,26.246-3.054c3.725-0.461,7.199-0.94,10.771-1.421
	c6.699-0.884,13.229-1.786,19.41-2.707c3.647-0.538,7.143-1.095,10.599-1.65c5.587-0.902,10.944-1.807,16.052-2.728
	c3.225-0.576,6.432-1.171,9.484-1.747c4.915-0.96,9.466-1.938,13.882-2.919c2.554-0.575,5.241-1.133,7.622-1.708
	c4.724-1.151,8.947-2.322,13.018-3.495c1.518-0.44,3.283-0.883,4.725-1.323C1769.712,1092.408,1770.021,1092.332,1770.25,1092.256z
	 M1467.965,1482.035c-9.562,1.421-19.431,2.765-29.299,4.128c-3.975,0.536-7.834,1.112-11.866,1.65
	c-12.115,1.595-24.518,3.11-37.056,4.588c-1.997,0.23-3.897,0.5-5.913,0.73c-14.688,1.688-29.626,3.302-44.812,4.838
	c-3.282,0.326-6.7,0.614-10.022,0.941c-11.789,1.15-23.615,2.284-35.674,3.32c-6.758,0.596-13.688,1.096-20.524,1.651
	c-8.734,0.71-17.414,1.439-26.266,2.093c-8.198,0.614-16.569,1.134-24.864,1.689c-7.68,0.519-15.302,1.056-23.039,1.536
	c-8.891,0.537-17.895,1.018-26.86,1.496c-5.896,0.327-11.789,0.653-17.723,0.961c0.441-5.74,0.846-11.827,1.286-17.722
	c0.423-5.761,0.847-11.425,1.248-17.317c0.538-7.834,1.058-15.938,1.574-24c0.404-6.434,0.826-12.73,1.229-19.315
	c0.479-8.045,0.939-16.358,1.4-24.596c0.384-6.873,0.787-13.612,1.152-20.64c0.461-8.756,0.883-17.817,1.306-26.784
	c0.326-6.815,0.672-13.479,0.979-20.409c0.557-12.365,1.056-25.037,1.573-37.747c0.308-7.661,0.595-15.398,0.884-23.194
	c0.461-12.651,0.922-25.324,1.344-38.266c0.211-6.432,0.385-13.036,0.576-19.545c0.326-10.944,0.651-21.851,0.94-32.985
	c0.191-7.296,0.347-14.746,0.519-22.119c0.211-8.946,0.44-17.816,0.634-26.88c8.774-0.191,17.317-0.402,25.978-0.614
	c7.738-0.173,15.533-0.346,23.176-0.538c8.966-0.229,17.722-0.498,26.554-0.748c8.544-0.25,17.184-0.461,25.594-0.729
	c9.753-0.308,19.238-0.653,28.8-0.979c10.388-0.365,20.697-0.729,30.854-1.113c12.94-0.5,25.805-0.999,38.36-1.536
	c3.976-0.173,7.775-0.365,11.713-0.538c11.904-0.537,23.751-1.075,35.251-1.65c4.051-0.212,7.909-0.423,11.903-0.634
	c11.117-0.576,22.156-1.172,32.853-1.786c3.955-0.229,7.737-0.479,11.654-0.71c10.405-0.634,20.717-1.248,30.7-1.92
	c4.031-0.269,7.871-0.557,11.826-0.826c6.951-0.479,14.056-0.939,20.775-1.438c-0.365,8.006-0.75,15.974-1.152,23.923
	c-0.326,6.413-0.614,12.864-0.979,19.238c-0.595,10.655-1.268,21.178-1.938,31.698c-0.347,5.529-0.674,11.099-1.037,16.59
	c-0.787,11.442-1.651,22.731-2.517,34.003c-0.346,4.474-0.651,9.023-1.018,13.479c-1.134,13.901-2.343,27.629-3.59,41.224
	c-0.154,1.67-0.289,3.379-0.441,5.05c-1.44,15.321-2.978,30.432-4.59,45.293c-0.287,2.61-0.595,5.126-0.902,7.718
	c-1.344,12.077-2.707,24.058-4.166,35.77c-0.536,4.358-1.133,8.525-1.67,12.826c-1.268,9.792-2.516,19.564-3.858,29.088
	c-0.652,4.686-1.363,9.179-2.035,13.806c-1.113,7.546-2.229,15.053-3.381,22.406c-7.008,1.172-14.168,2.284-21.389,3.397
	C1477.296,1480.576,1472.728,1481.324,1467.965,1482.035z M1040.399,1515.885c-30.277,0.729-60.786,1.094-91.314,1.229
	c-6.395,0.021-12.768,0.039-19.162,0.039c-29.895,0.02-59.788-0.191-89.529-0.749c-11.615-0.212-23.002-0.69-34.541-0.999
	c-20.197-0.537-40.416-1.056-60.346-1.843c-0.364-5.107-0.689-10.388-1.056-15.629c-0.461-7.008-0.94-13.901-1.382-21.12
	c-0.461-7.314-0.885-14.938-1.308-22.483c-0.384-6.699-0.787-13.267-1.151-20.12c-0.479-8.891-0.922-18.105-1.383-27.245
	c-0.287-5.934-0.595-11.692-0.883-17.74c-0.634-13.633-1.248-27.61-1.824-41.761c-0.076-1.747-0.152-3.398-0.229-5.146
	c-0.652-16.243-1.267-32.812-1.843-49.65c-0.098-2.899-0.174-5.934-0.288-8.852c-0.461-13.805-0.902-27.725-1.307-41.914
	c-0.152-5.49-0.288-11.115-0.44-16.665c-0.326-11.98-0.634-23.98-0.922-36.191c-0.135-6.087-0.25-12.308-0.385-18.451
	c-0.211-9.812-0.423-19.643-0.596-29.568c13.269,0.23,26.899,0.308,40.301,0.5c19.547,0.249,38.957,0.558,58.733,0.71
	c15.782,0.135,31.681,0.135,47.539,0.212c16.935,0.076,33.772,0.211,50.765,0.211c2.188,0,4.358-0.038,6.549-0.038
	c31.66-0.02,63.205-0.191,94.637-0.461c5.971-0.058,12.038-0.038,17.99-0.097c35.192-0.346,70.08-0.845,104.352-1.517
	c-0.152,7.681-0.346,15.264-0.518,22.867c-0.192,8.696-0.385,17.472-0.615,26.072c-0.25,9.793-0.557,19.373-0.825,29.012
	c-0.229,7.758-0.442,15.63-0.673,23.271c-0.326,10.291-0.689,20.333-1.056,30.451c-0.249,6.758-0.46,13.65-0.71,20.333
	c-0.385,9.906-0.808,19.507-1.21,29.222c-0.749,17.914-1.557,35.481-2.419,52.628c-0.211,4.263-0.403,8.679-0.635,12.884
	c-0.537,10.426-1.133,20.506-1.707,30.604c-0.271,4.725-0.521,9.581-0.808,14.229c-0.557,9.369-1.172,18.394-1.748,27.475
	c-0.346,5.127-0.651,10.407-0.998,15.438c-0.576,8.332-1.171,16.32-1.785,24.364c-0.326,4.416-0.653,8.891-0.998,13.21
	c-20.142,0.922-40.608,1.557-61.076,2.188C1062.481,1515.098,1051.575,1515.617,1040.399,1515.885z M683.203,1510.662
	c-11.577-0.635-23.021-1.363-34.444-2.094c-4.839-0.308-9.734-0.576-14.554-0.901c-11.789-0.787-23.424-1.671-35.021-2.573
	c-4.301-0.326-8.679-0.614-12.94-0.96c-13.996-1.133-27.782-2.342-41.453-3.59c-1.689-0.154-3.417-0.288-5.106-0.442
	c-15.397-1.438-30.548-2.976-45.466-4.588c-2.918-0.308-5.722-0.673-8.621-0.999c-11.77-1.306-23.462-2.63-34.867-4.051
	c-5.011-0.614-9.83-1.286-14.782-1.92c-9.103-1.171-18.24-2.343-27.093-3.591c-5.528-0.769-10.866-1.595-16.301-2.399
	c-6.797-0.999-13.574-1.997-20.197-3.034c-1-6.412-1.959-12.979-2.938-19.545c-0.845-5.703-1.709-11.29-2.516-17.107
	c-1.134-8.083-2.188-16.416-3.265-24.711c-0.749-5.779-1.535-11.424-2.266-17.299c-1.133-9.12-2.17-18.509-3.227-27.859
	c-0.596-5.261-1.229-10.387-1.805-15.704c-1.574-14.632-3.072-29.512-4.493-44.621c-0.479-5.203-0.922-10.579-1.382-15.82
	c-0.902-10.138-1.824-20.237-2.65-30.565c-0.536-6.739-1.018-13.651-1.517-20.469c-0.672-9.005-1.362-17.99-1.997-27.109
	c-0.499-7.315-0.921-14.766-1.382-22.139c-0.538-8.812-1.114-17.587-1.613-26.496c-0.422-7.718-0.786-15.514-1.171-23.289
	c-0.346-7.009-0.69-13.996-1.018-21.043c4.396,0.308,9.082,0.575,13.574,0.884c7.431,0.499,14.821,0.998,22.502,1.459
	c6.912,0.423,14.094,0.825,21.196,1.229c7.085,0.403,14.056,0.826,21.312,1.21c8.429,0.461,17.146,0.883,25.823,1.307
	c6.354,0.307,12.575,0.651,19.065,0.939c11.251,0.52,22.828,1.018,34.444,1.498c4.186,0.173,8.236,0.364,12.461,0.537
	c32.391,1.306,66.048,2.458,100.762,3.438c4.301,0.115,8.717,0.23,13.057,0.347c12.959,0.345,25.938,0.689,39.148,0.998
	c6.95,0.152,14.054,0.288,21.081,0.44c9.235,0.191,18.374,0.403,27.725,0.576c0.173,9.331,0.384,18.433,0.576,27.647
	c0.153,7.064,0.288,14.208,0.441,21.196c0.308,13.134,0.652,26.017,0.999,38.881c0.115,4.416,0.229,8.946,0.346,13.323
	c0.998,34.791,2.15,68.507,3.455,100.954c0.115,2.938,0.25,5.741,0.365,8.68c0.538,13.056,1.095,25.995,1.688,38.63
	c0.23,4.877,0.48,9.543,0.711,14.343c0.499,10.291,1.019,20.582,1.556,30.547c0.308,5.779,0.652,11.309,0.96,16.974
	c0.499,8.774,0.999,17.55,1.517,26.035c0.365,5.837,0.749,11.442,1.114,17.126c0.384,5.914,0.749,12.021,1.151,17.779
	c-9.312-0.422-18.586-0.864-27.802-1.344C693.303,1511.181,688.215,1510.951,683.203,1510.662z M314.967,1469.709
	c-9.12-1.709-17.876-3.515-26.631-5.301c-5.146-1.056-10.444-2.072-15.456-3.147c-9.101-1.958-17.74-4.013-26.398-6.048
	c-4.226-0.999-8.68-1.959-12.787-2.996c-10.215-2.534-19.949-5.164-29.491-7.812c-2.17-0.597-4.531-1.173-6.644-1.786
	c-11.539-3.304-22.561-6.683-33.024-10.139c-2.572-0.845-4.857-1.747-7.372-2.61c-7.643-2.63-15.207-5.262-22.234-7.969
	c-3.513-1.362-6.643-2.765-9.982-4.146c-5.568-2.284-11.155-4.569-16.281-6.912c-3.418-1.574-6.471-3.187-9.696-4.78
	c-3.706-1.823-7.373-3.667-10.81-5.528c-0.941-102.336-1.574-205.21-1.901-308.275c0.212,0.058,0.48,0.135,0.691,0.191
	c4.53,1.421,9.562,2.804,15.015,4.186c0.922,0.23,1.843,0.461,2.784,0.691c5.587,1.363,11.577,2.688,18.104,3.994
	c0.864,0.173,1.806,0.346,2.688,0.518c6.797,1.325,13.978,2.65,21.734,3.917c0.191,0.039,0.364,0.058,0.558,0.097
	c7.833,1.286,16.262,2.534,25.056,3.764c1.307,0.191,2.572,0.364,3.897,0.557c8.64,1.172,17.76,2.323,27.303,3.456
	c1.555,0.173,3.129,0.365,4.686,0.538c9.944,1.15,20.274,2.266,31.16,3.359c0.73,0.076,1.498,0.135,2.229,0.212
	c23.521,2.322,49.229,4.53,77.05,6.585c0.211,0.02,0.403,0.039,0.614,0.058v0.021h0.02c0.403,9.272,0.902,18.412,1.383,27.608
	c0.287,5.722,0.537,11.501,0.863,17.185c0.729,13.172,1.536,26.188,2.381,39.168c0.192,3.11,0.364,6.278,0.576,9.39
	c1.094,16.301,2.267,32.409,3.553,48.326c0.037,0.576,0.096,1.112,0.152,1.688c1.21,15.11,2.517,30.048,3.879,44.774
	c0.403,4.396,0.864,8.64,1.286,12.998c1.057,10.771,2.093,21.504,3.227,32.045c0.595,5.473,1.229,10.771,1.823,16.167
	c1.036,9.177,2.073,18.336,3.168,27.302c0.729,5.973,1.518,11.771,2.267,17.646c1.056,8.122,2.093,16.225,3.187,24.154
	c0.847,6.162,1.748,12.152,2.631,18.182c0.75,5.05,1.439,10.253,2.209,15.227c-6.777-1.133-13.44-2.285-20.045-3.456
	C326.544,1471.763,320.631,1470.765,314.967,1469.709z M86.313,735.289c0.386-102.835,1.037-205.479,2.018-307.584
	c3.667-1.92,7.545-3.803,11.501-5.702c3.206-1.536,6.239-3.091,9.619-4.608c5.395-2.419,11.27-4.762,17.126-7.104
	c3.303-1.325,6.374-2.688,9.812-3.994c7.314-2.783,15.148-5.473,23.099-8.16c2.419-0.806,4.606-1.67,7.064-2.477
	c10.617-3.476,21.772-6.854,33.407-10.156c2.65-0.749,5.549-1.459,8.257-2.189c9.139-2.515,18.395-4.992,28.128-7.392
	c4.665-1.152,9.657-2.227,14.457-3.36c8.142-1.92,16.263-3.821,24.77-5.664c5.645-1.209,11.597-2.362,17.413-3.552
	c8.123-1.651,16.205-3.302,24.635-4.896c6.374-1.19,12.998-2.323,19.525-3.476c6.028-1.056,12.097-2.112,18.26-3.148
	c-0.748,4.666-1.459,9.562-2.188,14.304c-0.96,6.125-1.92,12.211-2.842,18.471c-1.095,7.449-2.15,15.091-3.188,22.713
	c-0.846,6.125-1.709,12.192-2.516,18.434c-1.075,8.218-2.073,16.646-3.092,25.056c-0.71,5.952-1.459,11.809-2.15,17.837
	c-1.073,9.408-2.092,19.047-3.091,28.666c-0.557,5.28-1.151,10.444-1.67,15.763c-1.268,12.729-2.458,25.709-3.61,38.766
	c-0.211,2.381-0.44,4.704-0.651,7.104c-1.344,15.59-2.592,31.393-3.765,47.366c-0.325,4.339-0.575,8.774-0.883,13.133
	c-0.807,11.637-1.612,23.29-2.342,35.117c-0.385,6.412-0.711,12.921-1.076,19.372c-0.479,8.486-0.998,16.935-1.42,25.498l0,0v0.02
	c-1.287,0.097-2.42,0.212-3.687,0.326c-12.729,1.057-25.114,2.15-36.941,3.283c-0.902,0.076-1.747,0.173-2.648,0.269
	c-11.31,1.096-22.139,2.209-32.603,3.36c-1.612,0.173-3.283,0.346-4.877,0.52c-10.406,1.171-20.294,2.36-29.854,3.57
	c-1.959,0.249-3.897,0.499-5.818,0.748c-9.254,1.21-18.145,2.458-26.572,3.726c-1.613,0.25-3.148,0.5-4.724,0.729
	c-8.603,1.344-16.876,2.688-24.558,4.089c-0.384,0.077-0.749,0.154-1.133,0.212c-7.469,1.363-14.419,2.766-21.022,4.204
	c-1.114,0.23-2.267,0.48-3.341,0.711c-6.375,1.421-12.271,2.86-17.779,4.339c-1.133,0.309-2.246,0.614-3.36,0.902
	c-5.355,1.479-10.311,2.995-14.803,4.531C86.928,735.098,86.563,735.193,86.313,735.289z M411.946,343.111
	c8.869-1.248,18.009-2.419,27.129-3.591c4.915-0.634,9.715-1.306,14.707-1.92c11.309-1.401,22.867-2.707,34.482-4.013
	c2.977-0.326,5.875-0.691,8.87-1.019c14.804-1.613,29.856-3.13,45.14-4.57c2.631-0.25,5.356-0.46,8.008-0.71
	c12.595-1.152,25.286-2.285,38.169-3.321c5.317-0.422,10.752-0.807,16.107-1.21c10.369-0.787,20.736-1.593,31.259-2.304
	c6.239-0.422,12.596-0.787,18.873-1.19c9.772-0.614,19.526-1.248,29.414-1.805c6.701-0.365,13.498-0.691,20.237-1.037
	c7.72-0.384,15.456-0.768,23.213-1.133c-0.402,5.491-0.786,11.348-1.172,16.992c-0.384,5.587-0.787,11.078-1.171,16.8
	c-0.538,8.199-1.056,16.685-1.574,25.171c-0.346,5.625-0.69,11.136-1.018,16.896c-0.499,8.718-0.979,17.74-1.46,26.746
	c-0.308,5.951-0.652,11.771-0.94,17.836c-0.479,9.696-0.939,19.699-1.382,29.685c-0.25,5.605-0.538,11.039-0.769,16.741
	c-0.635,14.555-1.229,29.435-1.785,44.525c-0.115,3.11-0.23,6.239-0.346,9.369c-0.539,14.61-1.037,29.396-1.518,44.467
	c-0.191,6.355-0.365,12.903-0.557,19.335c-0.309,10.848-0.635,21.677-0.922,32.736c-0.174,6.97-0.326,14.111-0.5,21.158
	c-0.211,9.195-0.461,18.277-0.652,27.59c-8.083,0.173-15.993,0.385-24,0.558c-8.602,0.191-17.261,0.384-25.768,0.614
	c-7.853,0.211-15.531,0.441-23.289,0.672c-9.771,0.288-19.642,0.537-29.261,0.845c-4.856,0.153-9.522,0.347-14.343,0.499
	c-22.021,0.749-43.564,1.557-64.646,2.458c-6.336,0.27-12.806,0.52-19.046,0.787c-7.431,0.326-14.554,0.691-21.85,1.057
	c-8.583,0.402-17.261,0.807-25.651,1.247c-6.874,0.365-13.479,0.75-20.197,1.113c-8.41,0.461-16.877,0.922-25.058,1.421
	c-6.585,0.403-12.922,0.826-19.373,1.229c-7.985,0.499-15.993,1.018-23.729,1.536c-6.509,0.44-12.749,0.921-19.085,1.382
	c-5.376,0.403-10.963,0.769-16.205,1.171c0.364-7.334,0.769-14.611,1.171-21.888c0.404-7.296,0.788-14.611,1.229-21.83
	c0.596-9.619,1.248-19.104,1.9-28.608c0.442-6.509,0.864-13.075,1.325-19.525c0.768-10.329,1.612-20.486,2.438-30.645
	c0.462-5.51,0.864-11.116,1.345-16.588c1.133-12.979,2.343-25.729,3.591-38.381c0.249-2.458,0.461-4.992,0.689-7.45
	c1.519-15.148,3.13-30.066,4.819-44.717c0.365-3.11,0.77-6.105,1.133-9.196c1.344-11.386,2.728-22.733,4.167-33.772
	c0.614-4.724,1.286-9.254,1.938-13.92c1.248-9.14,2.496-18.299,3.82-27.168c0.787-5.241,1.612-10.253,2.399-15.398
	c1.057-6.835,2.132-13.651,3.227-20.294c6.7-1.057,13.574-2.055,20.429-3.072C401.271,344.685,406.513,343.858,411.946,343.111z
	 M750,275.488c0.44-5.184,0.902-10.157,1.345-15.11c0.27-2.899,0.537-5.896,0.787-8.698c0.499-5.223,0.998-10.214,1.497-15.149
	c0.229-2.246,0.441-4.608,0.672-6.777c0.71-6.951,1.44-13.632,2.17-20.026c0.134-1.171,0.27-2.208,0.403-3.36
	c0.595-5.107,1.189-10.119,1.766-14.88c0.288-2.362,0.596-4.55,0.885-6.835c0.44-3.417,0.883-6.835,1.324-10.061
	c0.308-2.266,0.614-4.397,0.922-6.586c0.422-2.976,0.845-5.952,1.268-8.774c0.308-2.093,0.634-4.089,0.939-6.104
	c0.424-2.669,0.826-5.299,1.248-7.833c0.309-1.862,0.614-3.688,0.922-5.472c0.422-2.458,0.846-4.838,1.269-7.123
	c0.307-1.651,0.595-3.283,0.901-4.838c0.422-2.208,0.825-4.301,1.248-6.355c0.287-1.44,0.575-2.899,0.863-4.282
	c0.441-2.112,0.885-4.089,1.307-6.029c0.25-1.114,0.498-2.266,0.748-3.322c0.52-2.247,1.037-4.339,1.556-6.375
	c0.154-0.614,0.308-1.286,0.461-1.881c0.672-2.592,1.325-5.011,1.979-7.257c0.096-0.365,0.211-0.653,0.307-1.018
	c0.537-1.824,1.075-3.571,1.594-5.184c0.211-0.633,0.403-1.19,0.614-1.785c0.326-0.96,0.653-1.901,0.979-2.784
	c105.35-0.307,210.873-0.288,316.146,0.058c0.461,1.152,0.922,2.361,1.401,3.648c0.153,0.403,0.287,0.749,0.441,1.152
	c1.401,3.897,2.86,8.448,4.377,13.728c0.174,0.595,0.346,1.267,0.521,1.882c0.575,2.074,1.15,4.224,1.745,6.509
	c0.23,0.902,0.462,1.862,0.691,2.803c0.538,2.15,1.075,4.358,1.613,6.701c0.27,1.152,0.537,2.362,0.807,3.571
	c0.519,2.323,1.036,4.742,1.574,7.257c0.287,1.344,0.557,2.728,0.845,4.128c0.52,2.554,1.036,5.185,1.557,7.93
	c0.286,1.556,0.595,3.13,0.883,4.743c0.518,2.822,1.037,5.76,1.555,8.774c0.309,1.747,0.597,3.456,0.902,5.261
	c0.538,3.207,1.076,6.566,1.613,9.984c0.288,1.805,0.557,3.533,0.845,5.396c0.595,3.878,1.189,7.987,1.767,12.134
	c0.23,1.613,0.462,3.129,0.691,4.8c1.631,11.77,3.264,24.615,4.877,38.592c0.287,2.534,0.575,5.261,0.883,7.872
	c0.519,4.569,1.019,9.158,1.536,13.978c0.345,3.206,0.672,6.604,1.018,9.945c0.461,4.474,0.902,8.966,1.362,13.632
	c0.365,3.706,0.711,7.565,1.058,11.405c0.269,2.822,0.519,5.74,0.787,8.64c-15.072-0.691-30.51-1.018-45.734-1.536
	c-16.243-0.557-32.313-1.248-48.691-1.651c-19.68-0.461-39.475-0.595-59.289-0.806c-14.055-0.154-28.031-0.442-42.125-0.461
	c-2.438,0-4.856-0.077-7.296-0.077c-60.403,0-120.884,1.19-179.924,3.552c0.271-3.283,0.519-6.585,0.788-9.792
	C749.443,282.035,749.712,278.695,750,275.488z M1195.21,318.765c10.637,0.652,21.139,1.382,31.643,2.112
	c5.434,0.384,10.925,0.729,16.318,1.133c11.654,0.864,23.117,1.805,34.58,2.765c4.107,0.346,8.294,0.653,12.384,0.999
	c14.554,1.267,28.896,2.63,43.065,4.051c0.883,0.096,1.824,0.173,2.707,0.25c15.264,1.536,30.298,3.168,45.082,4.896
	c1.133,0.134,2.208,0.269,3.341,0.403c13.325,1.555,26.458,3.187,39.321,4.876c4.263,0.557,8.332,1.171,12.537,1.748
	c9.601,1.306,19.2,2.63,28.513,4.013c4.954,0.729,9.696,1.517,14.554,2.285c7.064,1.095,14.111,2.208,21.005,3.36
	c1.019,6.086,1.979,12.345,2.956,18.566c0.902,5.779,1.844,11.443,2.728,17.337c1.229,8.313,2.399,16.877,3.591,25.421
	c0.71,5.224,1.479,10.312,2.169,15.591c1.498,11.31,2.899,22.905,4.282,34.561c0.326,2.707,0.672,5.318,0.998,8.045
	c1.709,14.648,3.32,29.568,4.857,44.717c0.191,1.882,0.346,3.84,0.537,5.741c1.307,13.19,2.572,26.515,3.764,40.032
	c0.402,4.703,0.769,9.521,1.151,14.266c0.902,10.79,1.806,21.58,2.611,32.562c0.461,6.183,0.864,12.479,1.286,18.7
	c0.672,9.64,1.344,19.259,1.938,29.012c0.441,7.161,0.825,14.438,1.229,21.657c0.402,7.182,0.807,14.361,1.172,21.58
	c-5.953-0.499-12.289-0.939-18.413-1.421c-4.992-0.384-9.869-0.787-14.976-1.15c-8.564-0.635-17.435-1.229-26.324-1.845
	c-5.338-0.363-10.541-0.729-15.993-1.074c-9.14-0.596-18.586-1.134-28.013-1.689c-5.491-0.326-10.829-0.652-16.416-0.979
	c-10.004-0.559-20.314-1.075-30.605-1.595c-5.375-0.27-10.598-0.557-16.051-0.826c-13.229-0.633-26.766-1.229-40.416-1.805
	c-5.837-0.249-11.731-0.479-17.646-0.729c-13.095-0.52-26.284-1.037-39.743-1.518c-8.104-0.288-16.437-0.519-24.673-0.787
	c-8.967-0.288-17.837-0.596-26.938-0.845c-9.255-0.269-18.722-0.499-28.129-0.729c-7.065-0.174-14.017-0.386-21.179-0.558l0,0l0,0
	c-0.248-10.271-0.518-20.295-0.806-30.413c-0.153-5.914-0.308-11.903-0.461-17.76c-0.364-12.691-0.769-25.133-1.19-37.556
	c-0.152-4.801-0.287-9.696-0.461-14.438c-0.557-16.107-1.171-31.93-1.805-47.52c-0.096-2.555-0.211-5.051-0.326-7.584
	c-0.614-14.708-1.268-29.224-1.939-43.411c-0.307-6.261-0.634-12.25-0.959-18.413c-0.479-9.312-0.94-18.701-1.459-27.782
	c-0.385-6.874-0.808-13.459-1.19-20.18c-0.479-8.083-0.96-16.243-1.459-24.115c-0.423-6.604-0.884-12.94-1.306-19.392
	c-0.52-7.623-1.037-15.303-1.575-22.694c-0.461-6.298-0.94-12.346-1.42-18.471c-0.403-5.223-0.808-10.656-1.21-15.744
	c8.16,0.423,16.263,0.864,24.363,1.325C1182.96,318.074,1189.124,318.399,1195.21,318.765z M1554.96,361.542
	c8.007,1.574,15.688,3.207,23.367,4.838c5.24,1.114,10.617,2.208,15.725,3.341c8.045,1.805,15.687,3.667,23.348,5.53
	c4.319,1.056,8.832,2.073,13.037,3.147c8.965,2.285,17.49,4.646,25.92,7.027c2.533,0.711,5.261,1.4,7.736,2.112
	c10.791,3.147,21.12,6.374,30.971,9.677c2.055,0.691,3.879,1.421,5.895,2.111c7.604,2.631,15.091,5.279,22.118,8.007
	c3.188,1.229,6.067,2.516,9.14,3.782c5.473,2.246,10.963,4.474,16.051,6.777c3.283,1.479,6.26,3.014,9.371,4.512
	c3.608,1.747,7.16,3.494,10.56,5.262c0.979,102.104,1.651,204.749,1.997,307.604c-0.23-0.077-0.557-0.153-0.787-0.25
	c-1.287-0.44-2.881-0.863-4.244-1.306c-4.281-1.382-8.793-2.745-13.785-4.09c-2.246-0.596-4.742-1.171-7.123-1.767
	c-4.666-1.151-9.504-2.305-14.727-3.418c-2.861-0.613-5.855-1.21-8.87-1.824c-5.396-1.074-11.04-2.149-16.974-3.188
	c-3.244-0.575-6.527-1.151-9.945-1.708c-6.471-1.075-13.324-2.112-20.353-3.149c-3.341-0.499-6.565-0.998-10.041-1.479
	c-8.468-1.171-17.415-2.323-26.631-3.456c-2.496-0.307-4.801-0.614-7.354-0.921c-12.175-1.44-24.902-2.842-38.324-4.187
	c-1.248-0.135-2.63-0.25-3.896-0.364c-10.445-1.037-21.062-2.056-32.237-3.054v-0.02h-0.02c-0.423-8.544-0.94-16.935-1.422-25.401
	c-0.364-6.374-0.672-12.787-1.073-19.104c-0.73-11.981-1.557-23.81-2.382-35.598c-0.288-4.07-0.538-8.198-0.825-12.229
	c-1.172-15.898-2.42-31.623-3.782-47.137c-0.212-2.534-0.479-4.992-0.691-7.526c-1.133-12.825-2.323-25.555-3.571-38.093
	c-0.557-5.453-1.151-10.752-1.728-16.146c-0.999-9.407-1.979-18.815-3.034-28.032c-0.71-6.221-1.479-12.269-2.227-18.394
	c-0.998-8.16-1.979-16.358-3.016-24.346c-0.845-6.451-1.729-12.711-2.609-19.047c-1.02-7.373-2.037-14.766-3.093-21.983
	c-0.96-6.509-1.959-12.864-2.957-19.239c-0.711-4.531-1.383-9.216-2.093-13.67c5.779,1.018,11.48,2.055,17.107,3.091
	C1543.325,359.354,1549.258,360.429,1554.96,361.542z M1768.637,1072.537c-1.018,0.364-2.034,0.711-3.147,1.074
	c-0.885,0.288-1.901,0.597-2.86,0.885c-1.076,0.326-2.094,0.651-3.265,0.998c-2.169,0.634-4.493,1.268-6.989,1.899
	c-0.806,0.212-1.708,0.423-2.553,0.634c-1.845,0.462-3.726,0.923-5.761,1.401c-1.057,0.25-2.229,0.5-3.342,0.749
	c-1.996,0.441-4.013,0.902-6.162,1.345c-1.248,0.27-2.573,0.519-3.879,0.787c-2.188,0.441-4.455,0.884-6.815,1.345
	c-1.439,0.269-2.957,0.557-4.455,0.824c-2.478,0.441-5.029,0.902-7.681,1.363c-1.555,0.27-3.129,0.538-4.741,0.807
	c-2.843,0.461-5.799,0.94-8.832,1.422c-1.67,0.269-3.341,0.519-5.068,0.786c-3.245,0.48-6.663,0.979-10.139,1.479
	c-1.746,0.249-3.437,0.499-5.241,0.729c-3.725,0.499-7.661,1.019-11.616,1.536c-1.823,0.23-3.552,0.461-5.413,0.691
	c-4.896,0.614-10.062,1.209-15.342,1.823c-1.074,0.114-2.072,0.25-3.168,0.385c-6.221,0.71-12.769,1.421-19.525,2.111
	c-4.07,0.423-8.41,0.845-12.691,1.268c-2.803,0.269-5.529,0.557-8.429,0.825c-5.05,0.479-10.349,0.96-15.688,1.421
	c-2.342,0.212-4.646,0.423-7.047,0.634c-6.065,0.519-12.345,1.056-18.776,1.574c-1.074,0.097-2.131,0.173-3.226,0.27
	c0.729-18.413,1.113-37.172,1.612-55.796c0.326-12.364,0.845-24.575,1.075-36.998c0.614-32.89,0.922-65.972,0.825-99.034
	c0-0.729-0.02-1.459-0.038-2.188c-0.097-32.506-0.537-64.974-1.324-97.209c-0.229-9.543-0.673-18.874-0.979-28.378
	c-0.652-21.235-1.229-42.528-2.17-63.438c2.957,0.27,5.896,0.519,8.774,0.787c3.802,0.346,7.623,0.69,11.289,1.057
	c4.513,0.44,8.853,0.863,13.172,1.306c3.552,0.365,7.144,0.71,10.56,1.075c4.205,0.44,8.181,0.883,12.192,1.324
	c3.265,0.364,6.644,0.729,9.773,1.095c3.974,0.461,7.68,0.922,11.479,1.383c5.588,0.672,11.002,1.363,16.205,2.054
	c3.379,0.442,6.854,0.884,10.061,1.346c2.996,0.422,5.779,0.824,8.66,1.247c2.727,0.403,5.529,0.787,8.142,1.19
	c2.745,0.422,5.317,0.825,7.93,1.248c2.534,0.402,5.088,0.806,7.507,1.209c2.438,0.403,4.762,0.807,7.085,1.21
	c2.304,0.403,4.607,0.807,6.816,1.209c2.188,0.403,4.319,0.807,6.393,1.21c2.113,0.403,4.167,0.807,6.164,1.21
	c1.939,0.384,3.859,0.787,5.702,1.171c1.938,0.403,3.821,0.825,5.664,1.229c1.65,0.364,3.302,0.729,4.876,1.095
	c1.863,0.441,3.629,0.864,5.377,1.306c1.344,0.326,2.707,0.652,3.975,0.998c1.861,0.48,3.591,0.96,5.3,1.421
	c0.979,0.27,2.034,0.538,2.957,0.808c2.36,0.672,4.568,1.344,6.643,1.997c0.173,0.058,0.385,0.115,0.557,0.173
	c2.285,0.729,4.396,1.459,6.355,2.149c0.384,0.135,0.711,0.27,1.074,0.402c1.325,0.48,2.573,0.96,3.744,1.44
	c0.364,105.331,0.385,210.815,0.059,316.146C1769.789,1072.153,1769.194,1072.346,1768.637,1072.537z M1501.719,1107.559
	c-6.815,0.441-13.92,0.883-20.946,1.305c-6.971,0.424-13.807,0.864-20.968,1.287c-8.141,0.461-16.608,0.902-24.998,1.345
	c-6.278,0.325-12.403,0.69-18.815,0.998c-12.864,0.652-26.056,1.248-39.418,1.844c-2.266,0.096-4.436,0.211-6.721,0.307
	c-15.992,0.691-32.312,1.345-48.96,1.959c-2.228,0.076-4.568,0.153-6.814,0.23c-14.267,0.519-28.705,1.018-43.394,1.479
	c-5.511,0.172-11.174,0.326-16.741,0.479c-11.539,0.346-23.061,0.672-34.829,0.979c-7.643,0.191-15.438,0.364-23.176,0.537
	c-8.293,0.192-16.568,0.385-24.959,0.557c0.384-20.429,0.575-41.202,0.845-61.861c0.173-13.594,0.44-27.033,0.557-40.686
	c0.271-29.99,0.347-60.096,0.347-90.183c0-12.748-0.02-25.401-0.058-38.15c-0.097-29.222-0.229-58.425-0.557-87.397
	c-0.136-12.249-0.404-24.211-0.576-36.385c-0.326-21.771-0.597-43.68-1.058-65.106c10.406,0.25,20.697,0.5,30.933,0.787
	c5.376,0.153,10.848,0.27,16.186,0.423c13.286,0.384,26.343,0.807,39.341,1.229c4.204,0.136,8.524,0.271,12.691,0.403
	c16.761,0.576,33.254,1.21,49.439,1.882c0.212,0,0.423,0.021,0.634,0.021c33.312,1.382,65.356,2.938,95.962,4.646
	c3.725,0.212,7.257,0.442,10.943,0.653c11.116,0.652,22.156,1.306,32.869,1.997c5.607,0.364,10.927,0.748,16.397,1.113
	c8.524,0.575,17.106,1.151,25.344,1.767c6.087,0.441,11.886,0.921,17.799,1.382c5.837,0.461,11.692,0.922,17.376,1.383
	c0.94,20.545,1.594,41.414,2.246,62.267c0.326,10.444,0.826,20.697,1.075,31.2c1.594,65.933,1.767,132.824,0.519,198.949
	c-0.191,10.312-0.634,20.43-0.901,30.701c-0.558,21.119-1.095,42.26-1.939,63.109c-4.952,0.365-10.061,0.729-15.147,1.095
	C1515.466,1106.617,1508.746,1107.098,1501.719,1107.559z M1048.33,1122.803c-7.661,0.077-15.418,0.077-23.099,0.135
	c-63.168,0.499-127.064,0.596-190.232,0.115h-0.02c-16.839-0.135-33.312-0.403-49.998-0.596c-18.315-0.211-36.729-0.402-54.776-0.71
	c-0.384-22.829-0.634-45.945-0.884-69.062c-0.115-11.098-0.326-22.042-0.402-33.196c-0.576-72.229-0.5-145.324,0.23-217.362
	c0.114-11.904,0.363-23.54,0.518-35.367c0.288-22.291,0.576-44.603,0.999-66.547c22.156-0.422,44.717-0.691,67.238-0.96
	c11.674-0.135,23.155-0.365,34.905-0.479c72.191-0.634,145.459-0.538,217.362,0.27c9.369,0.096,18.472,0.325,27.782,0.44
	c24.614,0.347,49.171,0.71,73.268,1.229c0.461,21.023,0.75,42.394,1.075,63.744c0.191,12.824,0.48,25.439,0.614,38.343
	c0.288,25.555,0.384,51.359,0.499,77.126c0.077,18.354,0.115,36.634,0.096,55.008c-0.038,27.938-0.076,55.892-0.326,83.731
	c-0.096,10.426-0.307,20.696-0.422,31.085c-0.288,23.941-0.576,47.847-1.018,71.48c-19.123,0.365-38.669,0.614-58.138,0.883
	C1078.474,1122.361,1063.612,1122.649,1048.33,1122.803z M661.085,1120.384c-7.893-0.192-15.591-0.403-23.386-0.595
	c-9.542-0.25-19.144-0.48-28.531-0.749c-9.657-0.271-19.085-0.597-28.569-0.885c-7.276-0.229-14.688-0.44-21.85-0.69
	c-16.531-0.575-32.794-1.171-48.729-1.806c-3.707-0.152-7.221-0.325-10.905-0.479c-12.347-0.52-24.634-1.037-36.576-1.594
	c-4.687-0.212-9.159-0.462-13.767-0.691c-10.694-0.519-21.39-1.056-31.72-1.612c-4.589-0.25-8.946-0.519-13.459-0.769
	c-10.1-0.576-20.18-1.151-29.895-1.747c-4.147-0.25-8.083-0.537-12.134-0.787c-7.854-0.499-15.592-1.037-23.156-1.556
	c-0.787-19.507-1.286-39.265-1.805-59.001c-0.326-11.963-0.807-23.771-1.037-35.789c-1.247-66.547-1.074-133.882,0.52-200.256
	c0.249-10.291,0.729-20.371,1.056-30.624c0.652-21.273,1.325-42.528,2.284-63.477c6.106-0.479,12.365-0.939,18.645-1.4
	c5.855-0.424,11.578-0.864,17.567-1.286c8.486-0.597,17.3-1.133,26.073-1.689c5.588-0.346,11.021-0.729,16.724-1.076
	c10.139-0.613,20.62-1.188,31.085-1.747c4.665-0.249,9.196-0.536,13.938-0.768c31.065-1.632,63.495-3.091,97.114-4.358
	c0.499-0.02,1.035-0.038,1.535-0.058c16.129-0.614,32.524-1.19,49.172-1.709c4.262-0.134,8.658-0.249,12.96-0.384
	c13.133-0.403,26.284-0.787,39.687-1.133c5.146-0.136,10.387-0.25,15.571-0.365c10.56-0.249,21.196-0.499,31.91-0.729
	c-0.423,22.483-0.691,45.39-0.979,68.219c-0.152,11.175-0.363,22.156-0.479,33.37c-0.365,35.558-0.559,71.365-0.614,107.213
	c0,0.44,0,0.862,0,1.306c-0.039,36.191,0.096,72.402,0.384,108.402c0.096,12.901,0.326,25.574,0.46,38.399
	c0.23,21.369,0.423,42.835,0.788,63.937c-5.855-0.115-11.636-0.23-17.453-0.347C682.647,1120.845,671.76,1120.633,661.085,1120.384z
	 M841.737,311.642c16.589-0.308,33.273-0.288,49.92-0.423c31.969-0.25,63.859-0.173,95.77,0.23
	c17.088,0.211,34.234,0.288,51.228,0.691c13.67,0.326,27.053,0.96,40.606,1.401c17.99,0.595,36.059,1.133,53.818,1.958
	c0.518,6.24,1.018,12.653,1.535,19.104c0.423,5.356,0.846,10.56,1.248,16.051c0.596,8.044,1.152,16.416,1.729,24.749
	c0.385,5.741,0.787,11.328,1.172,17.185c0.595,9.369,1.171,19.064,1.746,28.742c0.309,5.146,0.635,10.117,0.922,15.359
	c0.787,14.111,1.537,28.569,2.267,43.295c0.038,0.961,0.096,1.863,0.153,2.823c0.787,16.07,1.517,32.505,2.207,49.229
	c0.039,0.901,0.078,1.861,0.115,2.783c0.652,15.705,1.248,31.66,1.824,47.904c0.096,2.86,0.191,5.836,0.288,8.697
	c0.479,14.246,0.94,28.606,1.363,43.219c0.134,4.724,0.249,9.581,0.384,14.343c0.288,10.752,0.576,21.562,0.826,32.486
	c-17.799-0.384-36.115-0.576-54.164-0.864c-16.166-0.249-32.083-0.595-48.422-0.768c-25.113-0.288-50.517-0.365-75.917-0.48
	c-11.501-0.038-22.925-0.173-34.444-0.173c-3.227,0-6.375-0.058-9.601-0.058c-66.509,0-132.787,0.615-197.224,1.824
	c0.174-8.121,0.365-16.129,0.559-24.174c0.19-8.12,0.363-16.301,0.574-24.307c0.271-10.349,0.576-20.468,0.864-30.644
	c0.211-7.065,0.384-14.246,0.614-21.217c0.384-12.519,0.826-24.749,1.248-36.939c0.153-4.32,0.288-8.775,0.441-13.058
	c0.613-16.568,1.268-32.852,1.959-48.786c0.058-1.19,0.114-2.305,0.152-3.494c0.634-14.611,1.307-28.992,2.016-43.009
	c0.213-4.031,0.424-7.871,0.635-11.865c0.576-10.943,1.151-21.868,1.767-32.409c0.288-4.877,0.576-9.504,0.883-14.285
	c0.558-9.312,1.134-18.624,1.729-27.571c0.346-5.165,0.71-10.08,1.056-15.129c0.461-6.605,0.922-13.171,1.401-19.565
	c17.818-0.729,35.924-1.171,53.972-1.67C814.513,312.448,828.01,311.891,841.737,311.642z M91.421,753.837
	c0.038-0.021,0.077-0.021,0.115-0.039c2.073-0.749,4.357-1.497,6.797-2.267c0.499-0.152,1.095-0.325,1.613-0.479
	c1.958-0.596,3.992-1.21,6.201-1.824c0.863-0.25,1.843-0.499,2.744-0.749c1.979-0.537,4.014-1.075,6.184-1.632
	c1.152-0.288,2.419-0.595,3.629-0.883c2.131-0.52,4.32-1.037,6.644-1.557c1.382-0.308,2.822-0.634,4.281-0.939
	c2.323-0.5,4.742-1.019,7.238-1.519c1.632-0.325,3.321-0.672,5.03-0.997c2.592-0.5,5.3-1.019,8.084-1.536
	c1.805-0.326,3.608-0.673,5.489-0.998c2.957-0.52,6.087-1.057,9.255-1.574c1.939-0.326,3.841-0.653,5.856-0.96
	c3.455-0.557,7.084-1.114,10.771-1.671c1.979-0.308,3.879-0.595,5.914-0.883c4.281-0.614,8.793-1.248,13.383-1.862
	c1.671-0.23,3.244-0.461,4.973-0.691c12.961-1.709,27.13-3.418,42.625-5.106c1.555-0.173,3.225-0.326,4.8-0.499
	c6.239-0.672,12.614-1.325,19.296-1.997c2.419-0.23,4.992-0.479,7.449-0.71c6.105-0.597,12.288-1.172,18.759-1.747
	c2.86-0.25,5.875-0.52,8.812-0.77c4.107-0.363,8.391-0.71,12.634-1.074c-0.864,19.372-1.383,39.109-1.997,58.752
	c-0.364,11.463-0.883,22.732-1.171,34.253c-0.711,29.396-1.057,58.981-1.19,88.607c-0.02,5.567-0.097,11.099-0.097,16.646
	c-0.038,31.507,0.191,63.014,0.788,94.349c0.211,11.31,0.672,22.426,0.96,33.696c0.518,20.006,0.939,40.107,1.729,59.865
	c-3.11-0.23-6.184-0.461-9.217-0.691c-4.646-0.364-9.331-0.71-13.805-1.075c-4.512-0.364-8.832-0.729-13.19-1.112
	c-4.186-0.347-8.447-0.711-12.461-1.075c-4.685-0.423-9.12-0.845-13.594-1.269c-3.36-0.307-6.873-0.633-10.118-0.939
	c-6.949-0.672-13.594-1.363-20.024-2.055c-3.11-0.326-6.011-0.673-8.986-0.998c-4.204-0.462-8.447-0.94-12.422-1.401
	c-2.707-0.326-5.224-0.653-7.834-0.96c-3.552-0.442-7.123-0.884-10.482-1.325c-2.573-0.346-5.012-0.672-7.469-1.018
	c-3.149-0.422-6.298-0.864-9.255-1.286c-2.304-0.327-4.493-0.653-6.682-0.999c-2.92-0.441-5.779-0.883-8.507-1.306
	c-1.997-0.308-3.917-0.634-5.837-0.94c-2.707-0.441-5.355-0.902-7.891-1.344c-1.689-0.288-3.36-0.597-4.973-0.884
	c-2.555-0.461-4.992-0.94-7.373-1.401c-1.383-0.27-2.805-0.537-4.109-0.808c-2.398-0.479-4.627-0.959-6.835-1.459
	c-1.113-0.25-2.266-0.479-3.341-0.729c-2.496-0.557-4.8-1.113-7.046-1.671c-0.576-0.153-1.229-0.287-1.806-0.441
	c-5.664-1.438-10.521-2.821-14.669-4.166c-0.153-0.058-0.288-0.096-0.44-0.152c-1.613-0.52-3.053-1.037-4.455-1.557
	c-0.288-105.351-0.27-210.835,0.058-316.146C87.85,755.161,89.559,754.509,91.421,753.837z M1763.761,88.154
	c1.746,105.062,3.129,211.085,4.225,317.722c-1.651-0.808-3.553-1.574-5.262-2.382c-3.264-1.555-6.682-3.071-10.119-4.589
	c-4.779-2.111-9.694-4.204-14.803-6.277c-3.744-1.518-7.563-3.016-11.48-4.513c-5.301-2.017-10.79-3.994-16.378-5.952
	c-4.108-1.44-8.218-2.88-12.499-4.282c-5.934-1.958-12.115-3.859-18.336-5.76c-4.379-1.325-8.68-2.668-13.211-3.974
	c-6.815-1.958-13.938-3.859-21.101-5.741c-4.358-1.152-8.583-2.343-13.075-3.476c-8.641-2.169-17.664-4.281-26.783-6.355
	c-3.398-0.787-6.604-1.593-10.062-2.362c-12.634-2.803-25.709-5.51-39.206-8.141c-4.052-0.787-8.391-1.536-12.52-2.304
	c-8.64-1.613-17.185-3.264-26.149-4.8v-0.019h-0.021c-1.496-8.659-3.071-16.877-4.627-25.229c-0.824-4.435-1.611-9.082-2.478-13.44
	c-2.647-13.574-5.375-26.727-8.179-39.417c-0.596-2.65-1.21-5.088-1.806-7.68c-2.266-9.984-4.568-19.814-6.95-29.241
	c-0.998-3.956-2.034-7.661-3.053-11.501c-2.035-7.719-4.069-15.379-6.183-22.694c-1.19-4.167-2.438-8.122-3.647-12.154
	c-1.996-6.605-4.014-13.133-6.087-19.373c-1.325-4.032-2.688-7.911-4.052-11.808c-2.035-5.818-4.07-11.501-6.162-16.992
	c-1.439-3.782-2.881-7.45-4.359-11.078c-2.11-5.223-4.241-10.253-6.411-15.149c-1.498-3.36-2.978-6.701-4.493-9.926
	c-0.807-1.709-1.594-3.629-2.399-5.299C1552.675,85.043,1658.717,86.445,1763.761,88.154z M1424.247,83.757
	c1.785,3.398,3.552,6.989,5.299,10.618c1.498,3.11,3.033,6.066,4.492,9.331c2.228,4.935,4.396,10.253,6.566,15.552
	c1.345,3.264,2.707,6.317,4.014,9.715c2.477,6.413,4.896,13.267,7.296,20.16c0.94,2.668,1.899,5.126,2.822,7.872
	c3.264,9.773,6.47,19.987,9.581,30.663c0.922,3.168,1.805,6.643,2.707,9.888c2.188,7.776,4.357,15.571,6.471,23.827
	c1.113,4.397,2.188,9.082,3.283,13.613c1.822,7.526,3.667,15.014,5.414,22.905c1.094,4.936,2.149,10.138,3.244,15.207
	c1.688,7.949,3.379,15.917,5.012,24.211c1.018,5.203,1.996,10.617,2.994,15.955c1.134,6.01,2.229,12.134,3.321,18.316
	c-4.877-0.787-10.003-1.536-14.957-2.304c-5.798-0.902-11.538-1.805-17.452-2.688c-7.698-1.133-15.57-2.227-23.442-3.302
	c-5.913-0.807-11.751-1.651-17.779-2.438c-8.313-1.075-16.819-2.112-25.306-3.13c-5.855-0.71-11.616-1.44-17.549-2.131
	c-9.369-1.075-18.933-2.074-28.492-3.091c-5.28-0.557-10.465-1.152-15.803-1.69c-12.097-1.209-24.422-2.342-36.807-3.456
	c-2.995-0.269-5.895-0.576-8.909-0.825c-15.437-1.344-31.064-2.592-46.866-3.763c-4.78-0.346-9.678-0.653-14.496-0.979
	c-11.099-0.77-22.195-1.556-33.465-2.247c-6.49-0.403-13.076-0.73-19.623-1.094c-8.332-0.461-16.588-0.979-24.998-1.402v-0.019
	h-0.021c-0.787-8.852-1.594-17.126-2.419-25.517c-0.364-3.763-0.71-7.776-1.075-11.443c-1.306-12.826-2.631-25.037-4.013-36.71
	c-0.499-4.167-0.999-7.949-1.497-11.962c-0.94-7.507-1.883-14.957-2.842-21.945c-0.615-4.377-1.229-8.448-1.844-12.634
	c-0.902-6.144-1.824-12.173-2.766-17.875c-0.652-3.956-1.306-7.738-1.978-11.482c-0.979-5.414-1.959-10.598-2.938-15.59
	c-0.672-3.341-1.323-6.643-1.997-9.773c-1.074-4.953-2.149-9.523-3.244-13.978c-0.634-2.573-1.268-5.261-1.9-7.661
	c-1.324-4.973-2.688-9.446-4.07-13.708c-0.44-1.344-0.845-2.899-1.285-4.167c-0.098-0.25-0.174-0.576-0.25-0.826
	C1219.498,82.105,1322.122,82.778,1424.247,83.757z M759.446,82.432c-0.461,1.479-0.902,3.283-1.363,4.857
	c-1.171,4.013-2.322,8.18-3.455,12.845c-0.596,2.438-1.172,5.185-1.748,7.795c-0.96,4.339-1.92,8.832-2.859,13.651
	c-0.614,3.129-1.211,6.432-1.806,9.753c-0.901,4.973-1.767,10.157-2.631,15.591c-0.576,3.647-1.171,7.354-1.747,11.212
	c-0.864,5.837-1.709,12-2.554,18.298c-0.537,3.974-1.057,7.833-1.574,11.98c-0.922,7.392-1.824,15.245-2.707,23.194
	c-0.403,3.571-0.807,6.912-1.21,10.599c-1.248,11.77-2.457,24.076-3.629,37.037c-0.307,3.283-0.576,6.893-0.863,10.252
	c-0.749,8.659-1.518,17.261-2.247,26.419h-0.019l0,0c-9.158,0.403-18.202,0.902-27.303,1.363
	c-5.741,0.288-11.539,0.557-17.262,0.864c-11.77,0.653-23.386,1.383-35.002,2.131c-4.474,0.288-9.005,0.538-13.438,0.826
	c-15.938,1.075-31.699,2.246-47.29,3.494c-3.244,0.269-6.395,0.557-9.639,0.826c-12.25,1.018-24.441,2.054-36.441,3.187
	c-5.798,0.538-11.424,1.152-17.164,1.709c-9.312,0.922-18.645,1.824-27.783,2.822c-6.163,0.672-12.173,1.383-18.259,2.074
	c-8.468,0.96-16.954,1.92-25.248,2.938c-6.163,0.749-12.153,1.555-18.202,2.342c-8.006,1.037-16.013,2.074-23.846,3.168
	c-5.896,0.826-11.654,1.671-17.435,2.535c-5.241,0.768-10.618,1.498-15.764,2.285c1.058-6.028,2.15-11.979,3.245-17.855
	c1.036-5.53,2.054-11.155,3.109-16.55c1.633-8.313,3.342-16.263,5.03-24.23c1.057-4.954,2.093-10.061,3.168-14.88
	c1.824-8.141,3.726-15.878,5.626-23.616c1.019-4.186,2.017-8.563,3.054-12.633c2.284-8.928,4.665-17.376,7.046-25.728
	c0.711-2.496,1.383-5.203,2.111-7.642c3.131-10.618,6.336-20.774,9.619-30.451c0.846-2.477,1.729-4.685,2.592-7.104
	c2.459-6.97,4.936-13.901,7.488-20.333c1.324-3.36,2.707-6.375,4.051-9.581c2.15-5.126,4.282-10.272,6.49-15.034
	c1.518-3.264,3.072-6.202,4.607-9.293c1.709-3.437,3.418-6.835,5.165-10.042c102.354-0.941,205.229-1.574,308.294-1.901
	C759.601,81.894,759.524,82.201,759.446,82.432z M92.728,88.154c110.994-1.824,224.121-3.283,336.709-4.378
	c-0.748,1.479-1.438,3.188-2.188,4.704c-1.555,3.188-3.072,6.547-4.589,9.907c-2.131,4.685-4.224,9.504-6.297,14.516
	c-1.498,3.609-2.978,7.296-4.437,11.078c-2.035,5.261-4.031,10.714-6.029,16.301c-1.4,3.955-2.803,7.93-4.186,12.058
	c-1.996,5.971-3.936,12.192-5.875,18.509c-1.286,4.167-2.572,8.275-3.82,12.595c-2.017,6.951-3.975,14.266-5.934,21.6
	c-1.094,4.089-2.208,8.025-3.264,12.25c-2.285,9.023-4.513,18.451-6.701,28.013c-0.672,2.899-1.363,5.625-2.016,8.583
	c-2.822,12.672-5.55,25.786-8.198,39.36c-0.672,3.437-1.286,7.124-1.958,10.618c-1.729,9.158-3.477,18.259-5.127,27.821h-0.021v0.02
	c-10.387,1.688-20.294,3.495-30.278,5.28c-3.84,0.691-7.891,1.325-11.653,2.035c-14.688,2.728-28.896,5.529-42.624,8.448
	c-3.227,0.691-6.182,1.42-9.352,2.112c-10.328,2.266-20.544,4.55-30.297,6.912c-4.646,1.133-8.985,2.323-13.498,3.476
	c-7.872,2.016-15.744,4.032-23.213,6.125c-4.762,1.324-9.254,2.707-13.843,4.07c-6.777,1.997-13.498,4.013-19.93,6.086
	c-4.531,1.459-8.891,2.957-13.248,4.455c-5.99,2.054-11.886,4.128-17.55,6.24c-4.204,1.573-8.274,3.168-12.287,4.78
	c-5.318,2.131-10.483,4.281-15.477,6.472c-3.801,1.67-7.545,3.34-11.154,5.029c-1.9,0.883-4.014,1.747-5.855,2.649
	C89.616,299.258,91.019,193.216,92.728,88.154z M92.728,1759.187c-1.806-110.976-3.283-224.102-4.379-336.69
	c1.709,0.863,3.688,1.671,5.435,2.516c3.438,1.65,7.026,3.303,10.655,4.915c4.916,2.208,9.984,4.378,15.227,6.528
	c3.917,1.594,7.93,3.188,12.038,4.762c5.53,2.093,11.271,4.166,17.146,6.201c4.34,1.517,8.658,3.015,13.189,4.492
	c6.221,2.035,12.749,4.014,19.335,5.972c4.665,1.401,9.254,2.804,14.112,4.167c7.123,1.996,14.592,3.936,22.099,5.875
	c4.8,1.229,9.428,2.496,14.362,3.706c8.889,2.169,18.238,4.262,27.646,6.336c3.975,0.883,7.737,1.805,11.809,2.668
	c13.573,2.881,27.629,5.684,42.201,8.371c3.859,0.711,8.006,1.383,11.942,2.073c9.888,1.768,19.699,3.553,30.01,5.224l0,0l0,0
	c1.806,11.001,3.687,21.522,5.587,32.045c0.576,3.187,1.113,6.547,1.689,9.677c2.746,14.783,5.568,29.03,8.506,42.797
	c0.614,2.86,1.268,5.473,1.882,8.274c2.343,10.656,4.703,21.14,7.143,31.162c1.075,4.377,2.188,8.467,3.282,12.729
	c2.074,8.046,4.147,16.052,6.278,23.654c1.287,4.551,2.611,8.853,3.917,13.248c2.055,6.874,4.109,13.651,6.221,20.122
	c1.422,4.339,2.861,8.486,4.302,12.652c2.112,6.048,4.225,11.979,6.394,17.664c1.519,3.975,3.053,7.853,4.589,11.635
	c2.189,5.396,4.416,10.58,6.683,15.609c1.574,3.532,3.168,7.009,4.781,10.35c0.863,1.805,1.688,3.819,2.572,5.567
	C315.754,1762.49,202.627,1760.992,92.728,1759.187z M451.383,1763.775c-1.882-3.456-3.726-7.161-5.567-10.904
	c-1.574-3.188-3.148-6.184-4.704-9.562c-2.4-5.242-4.742-10.982-7.085-16.686c-1.324-3.207-2.67-6.201-3.955-9.543
	c-2.784-7.199-5.491-14.938-8.18-22.789c-0.807-2.344-1.633-4.455-2.42-6.837c-3.475-10.481-6.854-21.504-10.156-33.043
	c-0.634-2.227-1.229-4.704-1.861-6.97c-2.611-9.427-5.203-19.008-7.699-29.088c-1.114-4.454-2.15-9.254-3.226-13.823
	c-1.959-8.295-3.917-16.551-5.8-25.248c-1.171-5.473-2.304-11.231-3.437-16.857c-1.688-8.257-3.379-16.492-4.992-25.075
	c-1.171-6.201-2.266-12.652-3.397-19.026c-1.096-6.183-2.17-12.423-3.227-18.777c4.589,0.711,9.408,1.345,14.074,2.034
	c6.509,0.962,12.998,1.921,19.642,2.843c7.681,1.057,15.532,2.073,23.387,3.092c6.048,0.787,12.019,1.574,18.182,2.342
	c8.871,1.095,17.935,2.112,26.995,3.13c5.491,0.614,10.906,1.269,16.474,1.862c10.291,1.114,20.794,2.132,31.296,3.149
	c4.629,0.461,9.159,0.939,13.824,1.363c13.459,1.248,27.11,2.418,40.896,3.552c1.899,0.152,3.742,0.326,5.662,0.479
	c15.707,1.248,31.623,2.42,47.714,3.515c5.202,0.346,10.521,0.634,15.743,0.979c10.81,0.691,21.619,1.363,32.562,1.979
	c7.296,0.402,14.688,0.729,22.021,1.095c7.796,0.384,15.533,0.825,23.366,1.171l0,0l0,0c0.115,1.555,0.25,2.938,0.365,4.474
	c0.922,12.347,1.882,24.364,2.86,35.847c0.097,1.229,0.212,2.381,0.327,3.609c0.959,11.078,1.938,21.715,2.956,31.969
	c0.152,1.556,0.308,3.168,0.461,4.724c1.037,10.406,2.111,20.312,3.226,29.854c0.211,1.901,0.441,3.821,0.652,5.685
	c1.095,9.331,2.228,18.259,3.38,26.727c0.191,1.459,0.402,2.86,0.595,4.281c1.21,8.697,2.438,17.03,3.706,24.787
	c0.038,0.25,0.077,0.479,0.134,0.749c1.269,7.68,2.554,14.803,3.879,21.542c0.173,0.901,0.347,1.862,0.537,2.765
	c1.308,6.49,2.631,12.442,3.976,18.01c0.229,0.979,0.479,1.959,0.711,2.899c1.363,5.396,2.744,10.406,4.146,14.88
	c0.077,0.23,0.136,0.538,0.212,0.77C656.611,1765.35,553.757,1764.717,451.383,1763.775z M779.952,1765.734
	c-0.365-1.037-0.749-2.149-1.133-3.282c-0.211-0.614-0.403-1.152-0.614-1.786c-0.653-2.035-1.325-4.243-2.017-6.644
	c-0.02-0.058-0.039-0.135-0.058-0.191c-0.653-2.323-1.325-4.838-2.017-7.507c-0.211-0.864-0.441-1.824-0.652-2.728
	c-0.499-1.997-0.979-4.032-1.479-6.221c-0.25-1.113-0.52-2.343-0.77-3.494c-0.461-2.15-0.939-4.34-1.42-6.682
	c-0.289-1.384-0.559-2.843-0.846-4.282c-0.46-2.323-0.902-4.723-1.363-7.219c-0.287-1.595-0.595-3.265-0.883-4.954
	c-0.461-2.611-0.922-5.318-1.383-8.121c-0.287-1.767-0.596-3.571-0.884-5.435c-0.461-2.918-0.939-5.989-1.401-9.119
	c-0.308-1.979-0.595-3.955-0.901-6.029c-0.479-3.34-0.96-6.854-1.44-10.406c-0.287-2.073-0.557-4.07-0.845-6.221
	c-0.537-4.031-1.056-8.294-1.594-12.614c-0.229-1.92-0.46-3.725-0.71-5.683c-0.691-5.762-1.363-11.81-2.055-18.067
	c-0.076-0.69-0.153-1.325-0.23-2.035c-0.768-7.047-1.517-14.419-2.266-22.1c-0.191-2.017-0.385-4.224-0.596-6.278
	c-0.557-5.76-1.095-11.597-1.65-17.722c-0.27-2.957-0.52-6.105-0.787-9.158c-0.461-5.414-0.922-10.848-1.383-16.551
	c-0.308-3.84-0.614-7.854-0.921-11.827c-0.27-3.438-0.538-6.969-0.788-10.502c13.594,0.537,27.494,0.768,41.203,1.189
	c16.263,0.5,32.371,1.096,48.769,1.401c17.088,0.326,34.233,0.384,51.397,0.538c13.307,0.114,26.555,0.403,39.879,0.403
	c1.748,0,3.494-0.059,5.241-0.059c34.118-0.039,68.198-0.402,102.048-1.189c0.538-0.021,1.096,0,1.651-0.021
	c32.313-0.749,64.396-1.843,96.021-3.283c-0.174,2.112-0.347,4.187-0.538,6.26c-0.52,6.029-1.036,12-1.557,17.74
	c-0.286,3.093-0.557,6.049-0.844,9.062c-0.521,5.529-1.037,11.078-1.556,16.339c-0.288,2.861-0.576,5.549-0.864,8.313
	c-0.537,5.146-1.056,10.33-1.594,15.207c-0.212,1.958-0.423,3.725-0.652,5.645c-0.979,8.697-1.959,16.915-2.938,24.768
	c-0.44,3.515-0.883,7.104-1.324,10.466c-0.385,2.938-0.768,5.625-1.151,8.446c-0.461,3.381-0.94,6.816-1.401,10.042
	c-0.385,2.63-0.769,5.089-1.152,7.604c-0.479,3.109-0.939,6.221-1.42,9.158c-0.385,2.36-0.749,4.606-1.133,6.874
	c-0.48,2.841-0.961,5.663-1.422,8.352c-0.364,2.056-0.729,4.051-1.095,6.01c-0.479,2.63-0.979,5.203-1.459,7.681
	c-0.346,1.786-0.69,3.552-1.057,5.261c-0.499,2.438-0.998,4.762-1.479,7.027c-0.326,1.498-0.651,3.015-0.979,4.454
	c-0.52,2.305-1.037,4.474-1.555,6.586c-0.289,1.21-0.576,2.458-0.864,3.591c-0.559,2.208-1.095,4.243-1.651,6.259
	c-0.25,0.902-0.48,1.843-0.729,2.707c-0.653,2.304-1.286,4.436-1.901,6.471c-0.134,0.422-0.269,0.902-0.402,1.307
	c-1.479,4.723-2.919,8.696-4.301,12.134C990.807,1766.041,885.321,1766.061,779.952,1765.734z M1116.894,1764.832
	c1.556-4.514,3.092-9.543,4.588-14.938c0.289-1.057,0.576-2.112,0.864-3.207c1.479-5.529,2.938-11.442,4.358-17.854
	c0.25-1.096,0.48-2.285,0.729-3.418c1.401-6.489,2.784-13.325,4.129-20.659c0.096-0.537,0.191-1.019,0.287-1.557
	c1.363-7.563,2.707-15.704,4.014-24.152c0.27-1.747,0.537-3.438,0.807-5.224c1.248-8.256,2.457-16.935,3.648-25.978
	c0.287-2.208,0.574-4.474,0.862-6.738c1.173-9.255,2.343-18.836,3.456-28.916c0.23-2.054,0.441-4.186,0.672-6.278
	c1.057-9.618,2.073-19.563,3.072-29.875c0.173-1.709,0.346-3.341,0.499-5.067c1.058-11.04,2.056-22.599,3.054-34.407
	c0.153-1.9,0.325-3.629,0.5-5.549c10.692-0.537,21.233-1.151,31.813-1.766c4.127-0.23,8.294-0.442,12.401-0.691
	c12.462-0.749,24.77-1.594,37.037-2.458c3.976-0.269,8.006-0.519,11.963-0.807c15.781-1.151,31.392-2.399,46.789-3.726
	c5.855-0.499,11.539-1.074,17.318-1.611c9.523-0.864,19.085-1.729,28.437-2.65c7.143-0.71,14.073-1.497,21.101-2.246
	c7.795-0.825,15.646-1.632,23.309-2.515c7.123-0.808,14.018-1.689,21.006-2.534c7.393-0.902,14.803-1.786,22.041-2.728
	c6.797-0.884,13.422-1.823,20.084-2.746c7.123-0.979,14.266-1.958,21.234-2.995c6.489-0.959,12.807-1.957,19.161-2.938
	c4.608-0.71,9.37-1.401,13.9-2.131c-1.151,6.931-2.322,13.767-3.532,20.505c-0.998,5.588-1.958,11.271-2.995,16.743
	c-1.709,9.12-3.494,17.895-5.28,26.648c-1.074,5.241-2.111,10.617-3.206,15.726c-1.899,8.812-3.879,17.223-5.854,25.651
	c-1.076,4.568-2.112,9.351-3.207,13.805c-2.342,9.466-4.762,18.451-7.2,27.359c-0.806,2.977-1.593,6.183-2.419,9.102
	c-3.283,11.577-6.643,22.675-10.1,33.234c-0.979,3.016-2.017,5.702-3.015,8.641c-2.516,7.373-5.012,14.727-7.604,21.543
	c-1.401,3.687-2.843,6.988-4.263,10.502c-2.266,5.605-4.513,11.251-6.815,16.436c-1.574,3.532-3.207,6.7-4.801,10.041
	c-1.824,3.821-3.667,7.604-5.529,11.176c-102.125,0.979-204.749,1.65-307.584,1.996
	C1116.739,1765.369,1116.815,1765.062,1116.894,1764.832z M1763.761,1759.187c-105.044,1.748-211.047,3.13-317.703,4.226
	c0.941-1.921,1.845-4.147,2.766-6.125c1.611-3.438,3.206-7.009,4.8-10.617c2.246-5.107,4.455-10.389,6.644-15.859
	c1.595-3.975,3.168-8.007,4.725-12.152c2.111-5.627,4.166-11.482,6.221-17.453c1.518-4.437,3.053-8.853,4.531-13.479
	c2.016-6.24,3.975-12.787,5.913-19.354c1.421-4.801,2.86-9.523,4.263-14.517c1.979-7.064,3.879-14.477,5.779-21.888
	c1.268-4.973,2.572-9.772,3.82-14.899c2.093-8.602,4.09-17.625,6.086-26.669c0.979-4.396,1.998-8.562,2.957-13.074
	c2.86-13.497,5.625-27.476,8.295-41.913c0.94-5.107,1.824-10.579,2.746-15.803c1.555-8.773,3.129-17.396,4.606-26.477h0.021l0,0
	c9.676-1.671,18.893-3.438,28.166-5.184c3.359-0.635,6.912-1.229,10.215-1.883c13.631-2.648,26.803-5.396,39.531-8.236
	c2.631-0.596,5.069-1.209,7.662-1.806c9.906-2.266,19.642-4.551,28.973-6.932c3.975-1.018,7.699-2.054,11.559-3.091
	c7.584-2.016,15.129-4.051,22.312-6.125c4.146-1.21,8.062-2.438,12.075-3.667c6.49-1.997,12.902-3.994,19.048-6.048
	c3.993-1.325,7.833-2.688,11.653-4.053c5.702-2.016,11.289-4.069,16.646-6.144c3.705-1.44,7.334-2.88,10.867-4.339
	c5.067-2.093,9.944-4.225,14.688-6.375c3.322-1.497,6.624-3.014,9.792-4.531c1.536-0.748,3.245-1.459,4.743-2.208
	C1767.063,1536.179,1765.565,1649.306,1763.761,1759.187z"/>
<path d="M1600.253,578.08c-46.713,0-672,0-672,0s-587.98,0-668.794,0c-99.206,0-99.206,148.627-99.206,273.273
	c0,124.647,0,456.326,0,456.326s378.604,0,479.942,0c101.338,0,182.88-194.765,288.058-194.765s181.768,194.765,291.552,194.765
	c109.786,0,476.448,0,476.448,0s0-360.883,0-456.326C1696.253,755.911,1696.253,578.08,1600.253,578.08z M544.253,1067.68
	c-79.525,0-144-64.474-144-144s64.475-144,144-144c79.526,0,144,64.474,144,144S623.779,1067.68,544.253,1067.68z M1312.253,1067.68
	c-79.525,0-144-64.474-144-144s64.475-144,144-144c79.526,0,144,64.474,144,144S1391.779,1067.68,1312.253,1067.68z"/>
</svg>
